<?xml version="1.0" encoding="utf-8"?>
<!-- Svg Vector Icons : http://www.onlinewebfonts.com/icon -->
<!DOCTYPE svg PUBLIC "-//W3C//DTD SVG 1.1//EN" "http://www.w3.org/Graphics/SVG/1.1/DTD/svg11.dtd">
<svg version="1.1" xmlns="http://www.w3.org/2000/svg" xmlns:xlink="http://www.w3.org/1999/xlink" x="0px" y="0px" viewBox="0 0 1000 1000" enable-background="new 0 0 1000 1000" xml:space="preserve">
<metadata> Svg Vector Icons : http://www.onlinewebfonts.com/icon </metadata>
<g><g transform="translate(0.000000,512.000000) scale(0.100000,-0.100000)"><path d="M2012.4,5055.9C938.7,4875.3,100,3889.1,100,2803.7c0-943.6,658.2-1852.2,1561-2155.1c359.2-120.4,168.9-112.6,3215.1-120.4c1939.6-5.8,2842.3-1.9,2974.4,13.6c368.9,42.7,706.7,165,1025.1,370.8c190.3,124.2,551.4,499,675.6,700.9c411.6,667.9,460.1,1440.6,137.9,2129.8c-326.2,698.9-988.2,1201.8-1726,1312.4C7701,5096.7,2251.2,5094.7,2012.4,5055.9z M8108.7,4613.2c786.3-215.5,1300.8-829,1366.8-1630.9c75.7-928-436.8-1694.9-1312.5-1968.7l-170.9-54.4H5002.3H2012.4l-174.7,54.4c-681.5,211.6-1130,698.9-1285.3,1399.8c-40.8,190.3-40.8,596,3.9,797.9C729,4021.1,1360,4580.2,2196.8,4665.7c36.9,3.9,1339.6,5.8,2892.8,3.9l2824.9-2L8108.7,4613.2z"/><path d="M7363.1,4143.4c-632.9-137.8-1120.2-772.7-1083.4-1415.3c50.5-881.4,941.6-1516.3,1755.1-1244.5c706.7,236.9,1122.2,1001.8,914.4,1679.4C8735.8,3856,8036.8,4289,7363.1,4143.4z M7807.8,3745.4c363.1-58.2,656.2-322.3,747.5-669.8c33-130.1,36.9-403.8,7.8-533.9c-167-724.2-1147.4-963-1642.5-399.9c-328.1,372.8-308.7,992.1,40.8,1343.5c133.9,132,275.7,209.7,460.1,248.5C7574.8,3768.7,7646.6,3770.6,7807.8,3745.4z"/><path d="M2192.9,3526c-198-83.5-339.8-223.3-438.8-434.9c-44.7-97.1-52.4-135.9-52.4-297c0-167,5.8-196.1,62.1-316.5c77.7-163.1,227.2-316.5,384.4-394.1c101-48.5,137.8-56.3,281.5-56.3c139.8,0,182.5,7.8,277.6,52.4c143.7,68,316.5,240.8,392.2,394.1c54.4,106.8,58.2,132,58.2,320.3c0,184.4-5.8,215.5-54.4,314.5c-75.7,155.3-221.3,306.8-366.9,384.4c-102.9,56.3-145.6,66-277.6,71.8C2328.8,3570.6,2286.1,3564.8,2192.9,3526z M2620.1,3112.5c180.6-132,184.4-500.9,5.8-627.1c-93.2-66-242.7-73.8-351.4-17.5c-46.6,25.2-102.9,71.8-122.3,106.8c-46.6,81.5-62.1,246.6-33,355.3c25.2,93.2,124.3,203.9,198,219.4C2410.4,3170.7,2567.6,3149.3,2620.1,3112.5z"/><path d="M3557.8,3539.6c-91.3-66-99-120.4-99-745.5s7.8-679.5,99-745.5c58.2-38.8,170.8-40.8,227.1,0c77.7,54.4,91.3,104.8,101,403.8l9.7,289.3l256.3-332c141.7-182.5,277.6-345.6,300.9-361.1c79.6-56.3,201.9-33,271.8,54.4c31.1,36.9,34.9,102.9,34.9,677.6c0,401.9-7.8,650.4-19.4,675.7c-27.2,48.5-120.4,95.1-196.1,95.1c-42.7,0-79.6-19.4-126.2-66l-66-66v-295.1V2829l-264,341.7C3944.2,3359,3806.3,3526,3783,3541.5C3728.7,3580.3,3614.1,3578.4,3557.8,3539.6z"/><path d="M2121.1-314.3C1367.8-401.7,672.7-902.5,333-1601.5c-429.1-883.4-248.5-1891,466-2595.8c293.2-287.4,632.9-483.4,1042.6-596l190.3-52.4h2960.8h2960.8l174.7,46.6c596.1,155.3,1083.4,502.8,1403.7,997.9c582.4,902.8,466,2017.2-293.2,2803.5C8862-607.5,8390.2-374.5,7856.3-312.4C7642.7-289,2332.7-289,2121.1-314.3z M8128.1-774.4c194.2-54.4,446.6-172.8,599.9-283.4c135.9-97.1,345.6-310.6,432.9-438.8c351.4-516.4,421.3-1240.6,178.6-1828.9c-233-565-706.7-947.5-1347.4-1087.2c-93.2-19.4-689.2-25.2-2989.9-25.2c-3050.1,0-2937.5-3.9-3232.6,91.3C845.5-4051.7,329.1-3073.2,577.6-2084.9c167,671.7,700.9,1182.4,1386.2,1328c155.3,33,335.9,34.9,3087,31.1l2922-3.9L8128.1-774.4z"/><path d="M2109.5-1213.2c-236.9-54.4-384.4-128.2-594.1-295.1c-240.7-192.2-432.9-510.6-495.1-821.3c-151.4-763,467.9-1553.2,1256.2-1607.6c605.7-40.8,1184.3,363.1,1386.2,970.8c273.7,825.1-368.9,1735.7-1252.3,1772.6C2293.9-1189.9,2183.2-1195.7,2109.5-1213.2z M2517.2-1613.2c248.5-36.9,500.9-188.3,629-380.5c322.3-489.3,159.2-1192.1-333.9-1432.8c-112.6-56.3-330.1-108.7-450.4-108.7s-330.1,50.5-442.7,106.8c-326.2,165-499,464-499,864c0,233,44.6,392.2,157.3,561.1c163.1,244.6,436.8,390.2,764.9,407.7C2363.8-1595.7,2443.4-1603.4,2517.2-1613.2z"/><path d="M4876.1-1815.1c-149.5-33-256.3-93.2-372.8-211.6c-122.3-122.3-205.8-283.4-233-452.4c-52.4-310.6,155.3-673.7,469.8-821.3c87.4-40.8,135.9-50.5,262.1-50.5c135.9,0,172.8,7.8,283.5,62.1c335.9,167,526.2,553.3,434.9,889.2C5613.9-2003.4,5227.5-1735.5,4876.1-1815.1z M5200.3-2265.5c85.4-64.1,130.1-172.8,130.1-318.4c-2-198-79.6-308.7-242.7-349.5c-157.3-38.8-322.3,33-378.6,167c-15.5,36.9-27.2,124.3-27.2,196.1c0,159.2,52.4,264,155.3,320.3C4928.5-2199.5,5124.6-2209.2,5200.3-2265.5z"/><path d="M6221.5-1817c-124.2-52.4-124.2-54.4-124.2-764.9c0-553.3,3.9-648.5,31.1-689.3c67.9-102.9,233-112.6,322.3-19.4c42.7,46.6,46.6,68,52.4,281.5l7.8,231.1h250.4c244.6,0,250.5,0,308.7,54.4c79.6,69.9,93.2,165,38.8,252.4c-54.4,87.4-102.9,101-370.8,101h-231v75.7v77.7l312.6,5.8l312.6,5.8l56.3,64.1c101,112.6,66,267.9-71.8,326.2C7025.3-1776.2,6310.9-1778.2,6221.5-1817z"/><path d="M7710.7-1801.5c-172.8-56.3-174.7-67.9-174.7-782.4c0-664,3.9-689.2,116.5-747.5c75.7-38.8,132-36.9,207.8,9.7c79.6,46.6,102.9,130.1,102.9,365v178.6h254.3h254.3l56.3,56.3c97.1,99,69.9,266-54.4,330.1c-23.3,11.6-141.7,21.3-275.7,21.3h-234.9v77.7v77.7h281.5c314.5,0,374.7,15.5,427.1,116.5c38.8,75.7,36.9,132-9.7,207.7c-25.2,40.8-60.2,67.9-110.7,81.5C8479.5-1787.9,7768.9-1782.1,7710.7-1801.5z"/></g></g>
</svg>